PathFileType	4	(X/Y/Z)	7_coords_data.trc
DataRate	CameraRate	NumFrames	NumMarkers	Units	OrigDataRate	OrigDataStartFrame	OrigNumFrames
30.0	30.0	9	21	m	30.0	54	86
Frame#	Time	THUMB_TIP	THUMB_IP	THUMB_MCP	THUMB_CMC	INDEX_TIP	INDEX_DIP	INDEX_PIP	INDEX_MCP	MIDDLE_TIP	MIDDLE_DIP	MIDDLE_PIP	MIDDLE_MCP	RING_TIP	RING_DIP	RING_PIP	RING_MCP	PINKY_TIP	PINKY_DIP	PINKY_PIP	PINKY_MCP	WRIST
X1	Y1	Z1	X2	Y2	Z2	X3	Y3	Z3	X4	Y4	Z4	X5	Y5	Z5	X6	Y6	Z6	X7	Y7	Z7	X8	Y8	Z8	X9	Y9	Z9	X10	Y10	Z10	X11	Y11	Z11	X12	Y12	Z12	X13	Y13	Z13	X14	Y14	Z14	X15	Y15	Z15	X16	Y16	Z16	X17	Y17	Z17	X18	Y18	Z18	X19	Y19	Z19	X20	Y20	Z20	X21	Y21	Z21
52	1.7666666666666588	0.5290397256505268	-0.03880200961263733	-0.13508445549100956	0.5064814318125331	-0.03443804467461892	-0.13480304984344676	0.48024849211307774	-0.02464177340050444	-0.12121312917227667	0.46852145642539333	-0.03130173863795305	-0.07869241072801991	0.5600412040722221	0.055995778048015366	-0.1628529669809397	0.5468947032707488	0.045733604454753884	-0.15579199609736927	0.5297058340947595	0.03224996148998294	-0.14335238268499562	0.5031708165524287	0.010688066487255898	-0.11796314043715422	0.5131564787245695	-0.02748196572111325	-0.13247078659451722	0.5305583426420255	-0.02425348689702833	-0.13631162721614914	0.5466800695737384	-0.0015167159095869076	-0.12779466086633146	0.5198959679971444	0.014499656554045837	-0.09582224092600028	0.530042143360443	-0.03618067717769241	-0.11852730542608708	0.546371565627271	-0.028596075755010802	-0.11761967681774604	0.5599323253232323	-0.010736776028606287	-0.10678772460446334	0.5329874776781074	0.002425458837645278	-0.07966851383595758	0.5997853688897186	0.014192989728194383	-0.06085531105265346	0.5848089613178253	0.0061918106275460905	-0.06302057067678374	0.5660105598453486	-0.0026470377173914983	-0.06607128879138913	0.5336091926850683	-0.017859146838142104	-0.0705014798982248	0.4622830810018609	-0.023011742144276925	-0.051989820119430985
53	1.7999999999999918	0.5286956257760387	-0.038981122476399066	-0.13514916017631218	0.5061279770177293	-0.034659279987685754	-0.1349978095095669	0.47995859492269455	-0.024845980362457387	-0.12129807990531633	0.4683981460101956	-0.03134621870527313	-0.07870708411479643	0.5598187600931993	0.05343593889229942	-0.165294349612864	0.5465738470043862	0.04368648958111426	-0.15771012154414038	0.5293018919339183	0.03094389714772583	-0.14462135769416984	0.5027339468869035	0.01060991896848873	-0.11827160017374638	0.5127769814776714	-0.02759440502043295	-0.1325967853518623	0.5301485849086803	-0.02439688304146187	-0.13659719125998615	0.5463367338732754	-0.0016534977048857646	-0.128225106302695	0.5197261829019136	0.014401881471974798	-0.09612757839963382	0.5298531007497485	-0.036330043129184975	-0.11886341628269093	0.5461940382888238	-0.028758717693618513	-0.11805794034091249	0.5597543408410447	-0.01085446686418401	-0.10729987471883484	0.5328715961044076	0.002271780518190991	-0.0801017038413383	0.6001172407409021	0.0134004937440787	-0.062049555634239695	0.5849829730787462	0.0056348249753612745	-0.06395961607956169	0.5660550155560269	-0.0030110078577033073	-0.06675139286878295	0.5335213812055661	-0.018024109290159157	-0.07088090522853224	0.462283081001861	-0.023011742144276953	-0.051989820119430985
54	1.8333333333333253	0.5282221742140352	-0.03965454713340988	-0.13521547528723515	0.5056789043851366	-0.03520559417970298	-0.1351271404856496	0.4795767537243183	-0.025233533435729677	-0.12141379897460836	0.4682258020933745	-0.03142653700953846	-0.07872079481928135	0.5598377193118913	0.049620408045848996	-0.16820996124878274	0.5464122553928175	0.04068769710083281	-0.15996595774742278	0.5289636271797898	0.029078370089519245	-0.146081479621547	0.5022471223798488	0.010430964662104858	-0.11865633174409035	0.5122502166483067	-0.02799892543893212	-0.132796298543728	0.5295845470337446	-0.024837453232055662	-0.13698271509892535	0.5459422300395981	-0.002132233931174121	-0.1288396951935773	0.5195722320847357	0.014060616814974058	-0.09661295608498105	0.5293850571068179	-0.03702384002237055	-0.11936732783878112	0.5457148220115922	-0.029416434252164364	-0.1186845719510431	0.5593716474787196	-0.01147766236743325	-0.10810763664690132	0.5327620015486543	0.0018545131065900167	-0.08074158697570444	0.60087571085235	0.011537188785441188	-0.06405953143674226	0.5854713265344719	0.0042208855099515885	-0.06553487891044829	0.5662773507469707	-0.003970795781759018	-0.06783698014277056	0.5334198623963992	-0.018423046361597528	-0.07135853710945594	0.4622830810018608	-0.023011742144276925	-0.051989820119430985
55	1.8666666666666587	0.5274710373747401	-0.0413860638850089	-0.13563005144526286	0.5050370965600528	-0.03642694338973154	-0.13527589973140486	0.479112976603279	-0.025973204700534047	-0.12158358977709921	0.4679910747384569	-0.03152143113112313	-0.07874189883960026	0.5598651399406394	0.04453444225295333	-0.17153193435010616	0.5462383581774063	0.036706301376373596	-0.16253021067107443	0.5285982766253102	0.02657935709257897	-0.14775582894768857	0.5017053041979362	0.010078154070011003	-0.11915312930537336	0.5112746025385893	-0.028520721346086325	-0.13277088962644046	0.52856820332106	-0.02570475931384747	-0.13735365405520167	0.5453847957188136	-0.0031631312129454803	-0.12970598953010376	0.51945119720341	0.013394683082303016	-0.09731100265241033	0.5284207341508874	-0.038251893097661444	-0.11989800570569237	0.5447857835207159	-0.030701281254756907	-0.119481568530523	0.5587497688414121	-0.012808692631475133	-0.10923255075702909	0.5326702117337208	0.0010638062962418093	-0.08162582497204757	0.6019703669170401	0.008433820601222108	-0.06682008226152542	0.5862288416225128	0.0017720218107273311	-0.0677282773268722	0.566677487073996	-0.005704933916378718	-0.0693566775765303	0.533301365628087	-0.019130567748137012	-0.07193937470230577	0.462283081001861	-0.023011742144276925	-0.051989820119430985
56	1.8999999999999915	0.5262562482484346	-0.043725106478519765	-0.13674668209869767	0.5040294478640868	-0.038002800934188535	-0.13564008193076582	0.4784718889001962	-0.026876416759778254	-0.12178963951867317	0.4677508329300447	-0.03164534724412571	-0.07875237356322079	0.5598671319432147	0.03828457916723299	-0.17490900757168742	0.5460458651439569	0.031893172091446376	-0.16510479930914446	0.528206466040354	0.023639072489069435	-0.14943203591603427	0.5011017373638481	0.009637300052881992	-0.11971806368043059	0.5099814547749311	-0.029542893543148596	-0.13245652435776273	0.527168486318941	-0.026981851543531443	-0.13756015155627643	0.544621057446881	-0.004652935276356351	-0.13076038616637692	0.5193390012225677	0.01249517447266607	-0.09815811805346586	0.5268204337674521	-0.03970824242223597	-0.11997381759402315	0.5432740620237836	-0.032341826861158746	-0.12009230381251468	0.5579041563448481	-0.014584204706303311	-0.11056302395713513	0.5325637619314881	5.2889997633753794e-05	-0.0826642658556831	0.6031598364025188	0.004377493901731477	-0.07008399859185893	0.5870657949448257	-0.00144673392451522	-0.07032935503874765	0.5671347797608114	-0.007993671695259719	-0.07116855618304302	0.5331591038331628	-0.02001548592084268	-0.07258731584731787	0.4622830810018609	-0.023011742144276925	-0.051989820119430985
57	1.9333333333333247	0.5244993740680661	-0.04605136100425353	-0.13877476663255622	0.5026299717261842	-0.0394350985006196	-0.1363346207984112	0.4776060634175172	-0.02768877135071482	-0.1220291039798252	0.4674721968739909	-0.031741366236522184	-0.07877669105789076	0.5597387868763671	0.031147191026847265	-0.17798510941815232	0.5457705214460855	0.02653505388901367	-0.1674202737880529	0.5277829966615221	0.02051417374297776	-0.1509215530075867	0.5004592842201648	0.009317654234886397	-0.1202346049135361	0.5086861065903461	-0.031252184304123964	-0.13254062602657996	0.5257705231215066	-0.02850318817130834	-0.1378853179776255	0.5436516824128358	-0.006293896287071665	-0.13185033277475233	0.5191934378487914	0.011591009374548433	-0.09901632078534794	0.5252165453916505	-0.041398223837607356	-0.1200519543920166	0.5416733727554411	-0.03407164709719318	-0.12075488140474133	0.5568718487436692	-0.01639225623731283	-0.11200128526036524	0.5324324196222238	-0.0009899749904861976	-0.08371339260977179	0.6043038314842056	-0.00046667521477283813	-0.07374407638785152	0.5878818419995184	-0.0052657988459924865	-0.07320865717164166	0.5675935778757564	-0.010669135602029062	-0.07316059736165187	0.5330133076226371	-0.020920350782866887	-0.07319137945706194	0.462283081001861	-0.023011742144276898	-0.051989820119430985
58	1.966666666666658	0.5220560715878779	-0.04801857876991966	-0.14174215065750317	0.5007782282125441	-0.04050312342349516	-0.13740956341306593	0.47648785627811374	-0.028218937593363552	-0.12231331852309973	0.4671340759072483	-0.03174301851320724	-0.07883944537561033	0.5591769373741753	0.023131385499707335	-0.18082184508574967	0.5452658854261263	0.020650097275474233	-0.16949374540191192	0.5273416836276065	0.01720185144785391	-0.15220668597590664	0.4999217454436775	0.009051510181940281	-0.12065743842166748	0.5077248999259896	-0.03375351445176697	-0.13368953562630514	0.5247440173720496	-0.030343333247853377	-0.13885870437124764	0.5426064904390027	-0.008068723894328056	-0.13301204856812238	0.5191118715035303	0.01053275063093645	-0.09987391422771502	0.5241619987982349	-0.043568871539136966	-0.12125726308371287	0.5404727535554782	-0.03593212557971637	-0.12205688199315529	0.5557971961334913	-0.01820526604841602	-0.11362480693236943	0.532298037017821	-0.002259227047878287	-0.0848457486599078	0.6052309452770154	-0.0064465065431181245	-0.07786696048669439	0.588545916811892	-0.009998487033849812	-0.07645513198737974	0.5679561078693978	-0.013963926717591724	-0.07538411619562146	0.5328365240947691	-0.02203531349919019	-0.07385081846893032	0.4622830810018608	-0.023011742144276925	-0.051989820119430985
59	1.9999999999999911	0.518768877174272	-0.049255056891414684	-0.1455891777708559	0.4984528803325152	-0.040901270310908344	-0.13884569780179845	0.47505839872526867	-0.028288839026417184	-0.12264554942524969	0.4667492771658657	-0.031622227951501214	-0.07894501147449684	0.5578819635322027	0.014533662248983392	-0.1832633312216218	0.5443352492520376	0.014492009328388733	-0.1712431483092957	0.5267960369974326	0.013918899040356147	-0.1532415536275552	0.4995015474452118	0.008956498266691926	-0.12093023188663515	0.5075620461599687	-0.036573664822098534	-0.13594837611153254	0.5245038571378648	-0.03207823827192727	-0.14050536864183732	0.5418055077734814	-0.009503887652489607	-0.13414446230753502	0.5190720622621487	0.009437184248582309	-0.10066948401894321	0.523966796395955	-0.045873138755271714	-0.12357818138355137	0.539992146061443	-0.03762546241205153	-0.12398315426700829	0.5549584303767149	-0.019724645504518912	-0.1152796453862498	0.5321571066258224	-0.0036853739698785026	-0.08599548178465333	0.605646519532031	-0.013465974104261258	-0.08285081174816411	0.5888399441157738	-0.015567485001526049	-0.08037640783482708	0.5680985733415368	-0.017841204076292305	-0.07804450754221842	0.5326219217377127	-0.023326093014400945	-0.07455070798908103	0.4622830810018609	-0.023011742144276898	-0.051989820119430985
60	2.0333333333333243	0.5148041547236003	-0.04973103514373356	-0.14984258502443376	0.4958765541795088	-0.040762143015937946	-0.14039245742512196	0.4734834535615692	-0.027966128081363534	-0.12296744533017684	0.4663490315141112	-0.03142707173340181	-0.0790697017539273	0.5555056411872079	0.0053596783159164385	-0.18521521325633963	0.5427311885791241	0.008078450055656272	-0.17266843515233982	0.5260504245902594	0.010701479333973585	-0.15404367574039335	0.4991648931646586	0.009073959600968906	-0.12105647407851056	0.5080813592438513	-0.039440486036203204	-0.13913138061819552	0.5248199747674266	-0.03347143649809775	-0.1426226838083482	0.5411505738684228	-0.010508362240123637	-0.13517833671640583	0.5190385359439653	0.008493796150487898	-0.10132388831851485	0.5245706137459608	-0.048045113089684816	-0.12668586242600083	0.540148158011908	-0.038980113393929816	-0.1262785601323364	0.5543550092608753	-0.020850267341541828	-0.116809978469467	0.5320046591311314	-0.005061072656823762	-0.0870461747090952	0.6052400190997544	-0.02120543997110061	-0.08858631871668887	0.5885438504839169	-0.021660732214518197	-0.08484056611879776	0.5679101918019333	-0.02198625666667292	-0.08097298519185481	0.5324115730979225	-0.024587197863050886	-0.07514489579650041	0.462283081001861	-0.023011742144276925	-0.051989820119430985
